<?xml version='1.0' encoding='utf-8'?>
<svg width="2776.09mm" height="206.09mm" viewBox="-0.045 -206.045 2776.09 206.09" version="1.1" xmlns="http://www.w3.org/2000/svg">
  <g transform="scale(1,-1)" stroke-linecap="round">
    <g fill="none" stroke="rgb(0,0,0)" stroke-width="0.09" id="Visible">
      <path d="M 0.0,33.833333 L 0.0,67.666667 L 3.0,67.666667 L 3.0,101.5 L 0.0,101.5 L 0.0,135.333333 L 3.0,135.333333 L 3.0,169.166667 L 0.0,169.166667 L 0.0,203.0 L 30.6,203.0 L 30.6,206.0 L 61.2,206.0 L 61.2,203.0 L 91.8,203.0 L 91.8,206.0 L 122.4,206.0 L 122.4,203.0 L 153.0,203.0 L 153.0,206.0 L 183.6,206.0 L 183.6,203.0 L 214.2,203.0 L 214.2,206.0 L 244.8,206.0 L 244.8,203.0 L 275.4,203.0 L 275.4,206.0 L 306.0,206.0 L 306.0,171.666667 L 303.0,171.666667 L 303.0,137.333333 L 306.0,137.333333 L 306.0,133.0 L 275.4,133.0 L 275.4,130.0 L 306.0,130.0 L 306.0,103.0 L 303.0,103.0 L 303.0,68.666667 L 306.0,68.666667 L 306.0,34.333333 L 303.0,34.333333 L 303.0,12.0 L 300.0,12.0 L 300.0,7.0 L 303.0,7.0 L 303.0,5.0 L 300.0,5.0 L 300.0,0.0 L 6.0,0.0 L 6.0,5.0 L 3.0,5.0 L 3.0,7.0 L 6.0,7.0 L 6.0,12.0 L 3.0,12.0 L 3.0,33.833333 L 0.0,33.833333 M 30.6,133.0 L 30.6,130.0 L 61.2,130.0 L 61.2,133.0 L 30.6,133.0 M 91.8,133.0 L 91.8,130.0 L 122.4,130.0 L 122.4,133.0 L 91.8,133.0 M 153.0,133.0 L 153.0,130.0 L 183.6,130.0 L 183.6,133.0 L 153.0,133.0 M 214.2,133.0 L 214.2,130.0 L 244.8,130.0 L 244.8,133.0 L 214.2,133.0" />
      <path d="M 337.6,206.0 L 310.0,206.0 L 310.0,171.666667 L 307.0,171.666667 L 307.0,153.0 L 337.3,153.0 L 337.3,150.0 L 307.0,150.0 L 307.0,137.333333 L 310.0,137.333333 L 310.0,103.0 L 307.0,103.0 L 307.0,68.666667 L 310.0,68.666667 L 310.0,34.333333 L 307.0,34.333333 L 307.0,3.0 L 337.3,3.0 L 337.3,0.0 L 367.6,0.0 L 367.6,3.0 L 397.9,3.0 L 397.9,0.0 L 428.2,0.0 L 428.2,3.0 L 458.5,3.0 L 458.5,0.0 L 488.8,0.0 L 488.8,3.0 L 519.1,3.0 L 519.1,0.0 L 549.4,0.0 L 549.4,3.0 L 579.7,3.0 L 579.7,0.0 L 610.0,0.0 L 610.0,33.833333 L 613.0,33.833333 L 613.0,67.666667 L 610.0,67.666667 L 610.0,101.5 L 613.0,101.5 L 613.0,135.333333 L 610.0,135.333333 L 610.0,169.166667 L 613.0,169.166667 L 613.0,203.0 L 582.4,203.0 L 582.4,206.0 L 551.8,206.0 L 551.8,203.0 L 521.2,203.0 L 521.2,206.0 L 490.6,206.0 L 490.6,203.0 L 460.0,203.0 L 460.0,206.0 L 429.4,206.0 L 429.4,203.0 L 398.8,203.0 L 398.8,206.0 L 368.2,206.0 L 368.2,203.0 L 337.6,203.0 L 337.6,206.0 M 367.6,150.0 L 367.6,153.0 L 397.9,153.0 L 397.9,150.0 L 367.6,150.0 M 428.2,150.0 L 428.2,153.0 L 458.5,153.0 L 458.5,150.0 L 428.2,150.0 M 396.333333,34.333333 A 5.0,5.0 0.0 0,0 386.333333,34.333333 A 5.0,5.0 0.0 0,0 396.333333,34.333333 M 488.8,150.0 L 488.8,153.0 L 519.1,153.0 L 519.1,150.0 L 488.8,150.0 M 549.4,150.0 L 549.4,153.0 L 579.7,153.0 L 579.7,150.0 L 549.4,150.0 M 533.666667,34.333333 A 5.0,5.0 0.0 0,0 523.666667,34.333333 A 5.0,5.0 0.0 0,0 533.666667,34.333333" />
      <path d="M 614.0,7.0 L 614.0,0.0 L 820.0,0.0 L 820.0,33.833333 L 817.0,33.833333 L 817.0,67.666667 L 820.0,67.666667 L 820.0,101.5 L 817.0,101.5 L 817.0,130.0 L 764.0,130.0 L 764.0,168.0 L 767.0,168.0 L 767.0,133.0 L 817.0,133.0 L 817.0,135.333333 L 820.0,135.333333 L 820.0,169.166667 L 817.0,169.166667 L 817.0,203.0 L 820.0,203.0 L 820.0,206.0 L 785.666667,206.0 L 785.666667,203.0 L 751.333333,203.0 L 751.333333,206.0 L 717.0,206.0 L 717.0,203.0 L 682.666667,203.0 L 682.666667,206.0 L 648.333333,206.0 L 648.333333,203.0 L 614.0,203.0 L 614.0,170.333333 L 617.0,170.333333 L 617.0,137.666667 L 614.0,137.666667 L 614.0,105.0 L 617.0,105.0 L 617.0,72.333333 L 614.0,72.333333 L 614.0,39.666667 L 617.0,39.666667 L 617.0,7.0 L 614.0,7.0 M 813.0,196.5 L 813.0,139.5 L 771.0,139.5 L 771.0,196.5 L 813.0,196.5 M 653.333333,171.666667 A 5.0,5.0 6.3611093629270335e-15 0,0 643.333333,171.666667 A 5.0,5.0 6.3611093629270335e-15 0,0 653.333333,171.666667 M 653.333333,141.666667 A 5.0,5.0 6.3611093629270335e-15 0,0 643.333333,141.666667 A 5.0,5.0 6.3611093629270335e-15 0,0 653.333333,141.666667 M 747.0,103.0 A 5.0,5.0 6.3611093629270335e-15 0,0 737.0,103.0 A 5.0,5.0 6.3611093629270335e-15 0,0 747.0,103.0 M 747.0,73.0 A 5.0,5.0 6.3611093629270335e-15 0,0 737.0,73.0 A 5.0,5.0 6.3611093629270335e-15 0,0 747.0,73.0" />
      <path d="M 888.666667,206.0 L 888.666667,203.0 L 854.833333,203.0 L 854.833333,206.0 L 824.0,206.0 L 824.0,172.833333 L 821.0,172.833333 L 821.0,139.666667 L 824.0,139.666667 L 824.0,106.5 L 821.0,106.5 L 821.0,73.333333 L 824.0,73.333333 L 824.0,40.166667 L 821.0,40.166667 L 821.0,0.0 L 1027.0,0.0 L 1027.0,34.333333 L 1024.0,34.333333 L 1024.0,68.666667 L 1027.0,68.666667 L 1027.0,103.0 L 1024.0,103.0 L 1024.0,130.0 L 971.0,130.0 L 971.0,169.5 L 974.0,169.5 L 974.0,133.0 L 1024.0,133.0 L 1024.0,137.333333 L 1027.0,137.333333 L 1027.0,171.666667 L 1024.0,171.666667 L 1024.0,203.0 L 990.166667,203.0 L 990.166667,206.0 L 956.333333,206.0 L 956.333333,203.0 L 922.5,203.0 L 922.5,206.0 L 888.666667,206.0 M 860.333333,171.666667 A 5.0,5.0 6.3611093629270335e-15 0,0 850.333333,171.666667 A 5.0,5.0 6.3611093629270335e-15 0,0 860.333333,171.666667 M 860.333333,141.666667 A 5.0,5.0 6.3611093629270335e-15 0,0 850.333333,141.666667 A 5.0,5.0 6.3611093629270335e-15 0,0 860.333333,141.666667 M 954.0,103.0 A 5.0,5.0 6.3611093629270335e-15 0,0 944.0,103.0 A 5.0,5.0 6.3611093629270335e-15 0,0 954.0,103.0 M 954.0,73.0 A 5.0,5.0 6.3611093629270335e-15 0,0 944.0,73.0 A 5.0,5.0 6.3611093629270335e-15 0,0 954.0,73.0" />
      <path d="M 1028.0,199.0 L 1058.3,199.0 L 1058.3,196.0 L 1088.6,196.0 L 1088.6,199.0 L 1118.9,199.0 L 1118.9,196.0 L 1149.2,196.0 L 1149.2,199.0 L 1179.5,199.0 L 1179.5,196.0 L 1209.8,196.0 L 1209.8,199.0 L 1240.1,199.0 L 1240.1,196.0 L 1270.4,196.0 L 1270.4,199.0 L 1300.7,199.0 L 1300.7,196.0 L 1331.0,196.0 L 1331.0,199.0 L 1334.0,199.0 L 1334.0,165.833333 L 1331.0,165.833333 L 1331.0,132.666667 L 1334.0,132.666667 L 1334.0,99.5 L 1331.0,99.5 L 1331.0,66.333333 L 1334.0,66.333333 L 1334.0,33.166667 L 1331.0,33.166667 L 1331.0,5.0 L 1328.0,5.0 L 1328.0,0.0 L 1034.0,0.0 L 1034.0,5.0 L 1031.0,5.0 L 1031.0,0.0 L 1028.0,0.0 L 1028.0,32.666667 L 1031.0,32.666667 L 1031.0,65.333333 L 1028.0,65.333333 L 1028.0,98.0 L 1031.0,98.0 L 1031.0,130.666667 L 1028.0,130.666667 L 1028.0,163.333333 L 1031.0,163.333333 L 1031.0,196.0 L 1028.0,196.0 L 1028.0,199.0" />
      <path d="M 1335.0,0.0 L 1541.0,0.0 L 1541.0,5.0 L 1335.0,5.0 L 1335.0,0.0" />
      <path d="M 1542.0,0.0 L 1748.0,0.0 L 1748.0,5.0 L 1542.0,5.0 L 1542.0,0.0" />
      <path d="M 1749.0,0.0 L 1955.0,0.0 L 1955.0,5.0 L 1749.0,5.0 L 1749.0,0.0" />
      <path d="M 1956.0,0.0 L 2162.0,0.0 L 2162.0,5.0 L 1956.0,5.0 L 1956.0,0.0" />
      <path d="M 2224.2,56.0 L 2193.6,56.0 L 2193.6,53.0 L 2163.0,53.0 L 2163.0,3.0 L 2193.6,3.0 L 2193.6,0.0 L 2224.2,0.0 L 2224.2,3.0 L 2254.8,3.0 L 2254.8,0.0 L 2285.4,0.0 L 2285.4,3.0 L 2316.0,3.0 L 2316.0,0.0 L 2346.6,0.0 L 2346.6,3.0 L 2377.2,3.0 L 2377.2,0.0 L 2407.8,0.0 L 2407.8,3.0 L 2438.4,3.0 L 2438.4,0.0 L 2469.0,0.0 L 2469.0,56.0 L 2438.4,56.0 L 2438.4,53.0 L 2407.8,53.0 L 2407.8,56.0 L 2377.2,56.0 L 2377.2,53.0 L 2346.6,53.0 L 2346.6,56.0 L 2316.0,56.0 L 2316.0,53.0 L 2285.4,53.0 L 2285.4,56.0 L 2254.8,56.0 L 2254.8,53.0 L 2224.2,53.0 L 2224.2,56.0" />
      <path d="M 2470.0,76.0 L 2500.3,76.0 L 2500.3,73.0 L 2530.6,73.0 L 2530.6,76.0 L 2560.9,76.0 L 2560.9,73.0 L 2591.2,73.0 L 2591.2,76.0 L 2621.5,76.0 L 2621.5,73.0 L 2651.8,73.0 L 2651.8,76.0 L 2682.1,76.0 L 2682.1,73.0 L 2712.4,73.0 L 2712.4,76.0 L 2742.7,76.0 L 2742.7,73.0 L 2773.0,73.0 L 2773.0,39.5 L 2776.0,39.5 L 2776.0,3.0 L 2745.4,3.0 L 2745.4,0.0 L 2714.8,0.0 L 2714.8,3.0 L 2684.2,3.0 L 2684.2,0.0 L 2653.6,0.0 L 2653.6,3.0 L 2623.0,3.0 L 2623.0,0.0 L 2592.4,0.0 L 2592.4,3.0 L 2561.8,3.0 L 2561.8,0.0 L 2531.2,0.0 L 2531.2,3.0 L 2500.6,3.0 L 2500.6,0.0 L 2470.0,0.0 L 2470.0,38.0 L 2473.0,38.0 L 2473.0,73.0 L 2470.0,73.0 L 2470.0,76.0" />
    </g>
  </g>
</svg>