<?xml version='1.0' encoding='utf-8'?>
<svg width="300.09mm" height="220.09mm" viewBox="-0.045 -220.045 300.09 220.09" version="1.1" xmlns="http://www.w3.org/2000/svg">
  <g transform="scale(1,-1)" stroke-linecap="round">
    <g fill="none" stroke="rgb(0,0,0)" stroke-width="0.09" id="Visible">
      <path d="M 300.0,220.0 L 0.0,220.0 L 0.0,0.0 L 300.0,0.0 L 300.0,220.0 M 93.5,10.0 C 93.500837,9.81281 93.399747,9.640663 93.273035,9.504256 C 93.102922,9.321792 92.889641,9.182162 92.670436,9.059437 C 92.244119,8.825254 91.784221,8.65351 91.320131,8.501831 C 90.828487,8.345382 90.330705,8.209441 89.826785,8.09401 C 88.221529,7.723625 86.58656,7.485342 84.948643,7.294158 C 83.78262,7.161366 82.614059,7.053783 81.442958,6.97141 C 78.800185,6.78379 76.149828,6.700898 73.5,6.7 C 70.210877,6.702445 66.920003,6.825698 63.645453,7.128394 C 62.486284,7.234671 61.331054,7.371338 60.179763,7.538394 C 59.245552,7.676452 58.314571,7.837789 57.393842,8.043573 C 56.614743,8.219928 55.839364,8.422665 55.095363,8.708467 C 54.695158,8.866038 54.297564,9.044173 53.954638,9.300377 C 53.849869,9.378119 53.756272,9.466606 53.673847,9.565838 C 53.573359,9.689606 53.499195,9.840567 53.5,10.0 C 53.499164,10.187191 53.600253,10.359337 53.726965,10.495745 C 53.897078,10.678208 54.110359,10.817838 54.329564,10.940564 C 54.755881,11.174747 55.215779,11.34649 55.67987,11.498169 C 56.171513,11.654619 56.669295,11.790559 57.173215,11.90599 C 58.778471,12.276375 60.41344,12.514659 62.051358,12.705842 C 63.21738,12.838634 64.385942,12.946217 65.557042,13.02859 C 68.199816,13.216211 70.850172,13.299102 73.5,13.3 C 76.789123,13.297555 80.079997,13.174303 83.354547,12.871606 C 84.513716,12.765329 85.668946,12.628662 86.820237,12.461606 C 87.754449,12.323548 88.685429,12.162211 89.606158,11.956428 C 90.385257,11.780072 91.160636,11.577336 91.904637,11.291533 C 92.304842,11.133962 92.702437,10.955827 93.045363,10.699624 C 93.150131,10.621881 93.243728,10.533394 93.326153,10.434162 C 93.426641,10.310394 93.500805,10.159433 93.5,10.0 M 245.0,10.0 C 245.000837,9.81281 244.899747,9.640663 244.773035,9.504256 C 244.602922,9.321792 244.389641,9.182162 244.170436,9.059437 C 243.744119,8.825254 243.284221,8.65351 242.820131,8.501831 C 242.328487,8.345382 241.830705,8.209441 241.326785,8.09401 C 239.721529,7.723625 238.08656,7.485342 236.448643,7.294158 C 235.28262,7.161366 234.114059,7.053783 232.942958,6.97141 C 230.300185,6.78379 227.649828,6.700898 225.0,6.7 C 221.710877,6.702445 218.420003,6.825698 215.145453,7.128394 C 213.986284,7.234671 212.831054,7.371338 211.679763,7.538394 C 210.745552,7.676452 209.814571,7.837789 208.893842,8.043573 C 208.114743,8.219928 207.339364,8.422665 206.595363,8.708467 C 206.195158,8.866038 205.797564,9.044173 205.454638,9.300377 C 205.349869,9.378119 205.256272,9.466606 205.173847,9.565838 C 205.073359,9.689606 204.999195,9.840567 205.0,10.0 C 204.999164,10.187191 205.100253,10.359337 205.226965,10.495745 C 205.397078,10.678208 205.610359,10.817838 205.829564,10.940564 C 206.255881,11.174747 206.715779,11.34649 207.17987,11.498169 C 207.671513,11.654619 208.169295,11.790559 208.673215,11.90599 C 210.278471,12.276375 211.91344,12.514659 213.551358,12.705842 C 214.71738,12.838634 215.885942,12.946217 217.057042,13.02859 C 219.699816,13.216211 222.350172,13.299102 225.0,13.3 C 228.289123,13.297555 231.579997,13.174303 234.854547,12.871606 C 236.013716,12.765329 237.168946,12.628662 238.320237,12.461606 C 239.254449,12.323548 240.185429,12.162211 241.106158,11.956428 C 241.885257,11.780072 242.660636,11.577336 243.404637,11.291533 C 243.804842,11.133962 244.202437,10.955827 244.545363,10.699624 C 244.650131,10.621881 244.743728,10.533394 244.826153,10.434162 C 244.926641,10.310394 245.000805,10.159433 245.0,10.0" />
    </g>
  </g>
</svg>