999
"DXF R12 Output" (www.mydxf.blogspot.com)
 0 
SECTION
 2 
HEADER
 9 
$ACADVER
 1 
AC1009
 9 
$EXTMIN
 10 
 0 
 20 
 0 
 9 
$EXTMAX
 10 
 8.5 
 20 
 11 
 0 
ENDSEC
 0 
SECTION
 2 
ENTITIES
0
LINE
8
CC
10
20.592500
20
35.064000
11
19.300080
21
35.229224
0
LINE
8
CC
10
19.300080
20
35.229224
11
18.038190
21
35.725113
0
LINE
8
CC
10
18.038190
20
35.725113
11
16.870060
21
36.502677
0
LINE
8
CC
10
16.870060
20
36.502677
11
15.889474
21
37.483043
0
LINE
8
CC
10
15.889474
20
37.483043
11
14.311374
21
35.980543
0
LINE
8
CC
10
14.311374
20
35.980543
11
15.622694
21
34.703383
0
LINE
8
CC
10
15.622694
20
34.703383
11
17.151364
21
33.786836
0
LINE
8
CC
10
17.151364
20
33.786836
11
18.875564
21
33.234612
0
LINE
8
CC
10
18.875564
20
33.234612
11
20.772764
21
33.050561
0
LINE
8
CC
10
20.772764
20
33.050561
11
23.176614
21
33.362329
0
LINE
8
CC
10
23.176614
20
33.362329
11
24.949514
21
34.297700
0
LINE
8
CC
10
24.949514
20
34.297700
11
25.580461
21
34.983166
0
LINE
8
CC
10
25.580461
20
34.983166
11
26.031138
21
35.792711
0
LINE
8
CC
10
26.031138
20
35.792711
11
26.391679
21
37.783541
0
LINE
8
CC
10
26.391679
20
37.783541
11
26.114004
21
39.301151
0
LINE
8
CC
10
26.114004
20
39.301151
11
25.280252
21
40.548221
0
LINE
8
CC
10
25.280252
20
40.548221
11
24.003092
21
41.423479
0
LINE
8
CC
10
24.003092
20
41.423479
11
22.424992
21
41.825380
0
LINE
8
CC
10
22.424992
20
41.825380
11
22.425000
21
41.855400
0
LINE
8
CC
10
22.425000
20
41.855400
11
23.856260
21
42.246105
0
LINE
8
CC
10
23.856260
20
42.246105
11
24.964780
21
43.057471
0
LINE
8
CC
10
24.964780
20
43.057471
11
25.663327
21
44.195651
0
LINE
8
CC
10
25.663327
20
44.195651
11
25.895934
21
45.566721
0
LINE
8
CC
10
25.895934
20
45.566721
11
25.516492
21
47.328431
0
LINE
8
CC
10
25.516492
20
47.328431
11
24.378902
21
48.706991
0
LINE
8
CC
10
24.378902
20
48.706991
11
22.609632
21
49.608563
0
LINE
8
CC
10
22.609632
20
49.608563
11
20.367152
21
49.909062
0
LINE
8
CC
10
20.367152
20
49.909062
11
18.599332
21
49.735335
0
LINE
8
CC
10
18.599332
20
49.735335
11
17.068482
21
49.214077
0
LINE
8
CC
10
17.068482
20
49.214077
11
15.774602
21
48.345434
0
LINE
8
CC
10
15.774602
20
48.345434
11
14.716962
21
47.129334
0
LINE
8
CC
10
14.716962
20
47.129334
11
16.640332
21
45.807104
0
LINE
8
CC
10
16.640332
20
45.807104
11
17.391217
21
46.720815
0
LINE
8
CC
10
17.391217
20
46.720815
11
18.259860
21
47.373496
0
LINE
8
CC
10
18.259860
20
47.373496
11
19.246260
21
47.765076
0
LINE
8
CC
10
19.246260
20
47.765076
11
20.351870
21
47.895626
0
LINE
8
CC
10
20.351870
20
47.895626
11
21.557790
21
47.734110
0
LINE
8
CC
10
21.557790
20
47.734110
11
22.440242
21
47.249560
0
LINE
8
CC
10
22.440242
20
47.249560
11
22.981056
21
46.498237
0
LINE
8
CC
10
22.981056
20
46.498237
11
23.161325
21
45.506605
0
LINE
8
CC
10
23.161325
20
45.506605
11
22.868387
21
44.319575
0
LINE
8
CC
10
22.868387
20
44.319575
11
21.989567
21
43.493164
0
LINE
8
CC
10
21.989567
20
43.493164
11
20.351867
21
43.019883
0
LINE
8
CC
10
20.351867
20
43.019883
11
17.782287
21
42.862146
0
LINE
8
CC
10
17.782287
20
42.862146
11
17.782300
21
40.833700
0
LINE
8
CC
10
17.782300
20
40.833700
11
21.223430
21
40.533201
0
LINE
8
CC
10
21.223430
20
40.533201
11
22.233820
21
40.157611
0
LINE
8
CC
10
22.233820
20
40.157611
11
22.981070
21
39.601682
0
LINE
8
CC
10
22.981070
20
39.601682
11
23.431747
21
38.835384
0
LINE
8
CC
10
23.431747
20
38.835384
11
23.582214
21
37.828634
0
LINE
8
CC
10
23.582214
20
37.828634
11
23.383044
21
36.664214
0
LINE
8
CC
10
23.383044
20
36.664214
11
22.786260
21
35.785177
0
LINE
8
CC
10
22.786260
20
35.785177
11
21.831844
21
35.244293
0
LINE
8
CC
10
21.831844
20
35.244293
11
20.592484
21
35.064021
0
LINE
8
CC
10
20.592484
20
35.064021
11
20.592500
21
35.064000
 0 
ENDSEC
 0 
EOF