999
"DXF R12 Output" (www.mydxf.blogspot.com)
 0 
SECTION
 2 
HEADER
 9 
$ACADVER
 1 
AC1009
 9 
$EXTMIN
 10 
 0 
 20 
 0 
 9 
$EXTMAX
 10 
 8.5 
 20 
 11 
 0 
ENDSEC
 0 
SECTION
 2 
ENTITIES
0
LINE
8
CC
10
41.818200
20
52.975800
11
42.229852
21
50.821110
0
LINE
8
CC
10
42.229852
20
50.821110
11
37.050052
21
52.438900
0
LINE
8
CC
10
37.050052
20
52.438900
11
37.043081
21
50.274940
0
LINE
8
CC
10
37.043081
20
50.274940
11
42.679671
21
48.500570
0
LINE
8
CC
10
42.679671
20
48.500570
11
42.971791
21
46.709430
0
LINE
8
CC
10
42.971791
20
46.709430
11
37.917101
21
48.140590
0
LINE
8
CC
10
37.917101
20
48.140590
11
34.629501
21
46.073710
0
LINE
8
CC
10
34.629501
20
46.073710
11
34.224789
21
41.494330
0
LINE
8
CC
10
34.224789
20
41.494330
11
35.934149
21
32.674230
0
LINE
8
CC
10
35.934149
20
32.674230
11
38.334800
21
32.674200
0
LINE
8
CC
10
38.334800
20
32.674200
11
36.638720
21
41.416020
0
LINE
8
CC
10
36.638720
20
41.416020
11
36.841073
21
44.517750
0
LINE
8
CC
10
36.841073
20
44.517750
11
39.065583
21
45.551890
0
LINE
8
CC
10
39.065583
20
45.551890
11
42.379453
21
44.312250
0
LINE
8
CC
10
42.379453
20
44.312250
11
44.153823
21
40.933020
0
LINE
8
CC
10
44.153823
20
40.933020
11
45.758683
21
32.674200
0
LINE
8
CC
10
45.758683
20
32.674200
11
48.172200
21
32.674200
0
LINE
8
CC
10
48.172200
20
32.674200
11
45.262690
21
47.691500
0
LINE
8
CC
10
45.262690
20
47.691500
11
47.989770
21
46.830356
0
LINE
8
CC
10
47.989770
20
46.830356
11
47.997080
21
49.020536
0
LINE
8
CC
10
47.997080
20
49.020536
11
44.800290
21
50.012391
0
LINE
8
CC
10
44.800290
20
50.012391
11
44.232067
21
52.975811
0
LINE
8
CC
10
44.232067
20
52.975811
11
41.818200
21
52.975800
 0 
ENDSEC
 0 
EOF