999
"DXF R12 Output" (www.mydxf.blogspot.com)
 0 
SECTION
 2 
HEADER
 9 
$ACADVER
 1 
AC1009
 9 
$EXTMIN
 10 
 0 
 20 
 0 
 9 
$EXTMAX
 10 
 8.5 
 20 
 11 
 0 
ENDSEC
 0 
SECTION
 2 
ENTITIES
0
LINE
8
CC
10
31.643300
20
34.038900
11
31.643300
21
37.554800
0
LINE
8
CC
10
31.643300
20
37.554800
11
30.448400
21
37.703800
0
LINE
8
CC
10
30.448400
20
37.703800
11
29.289800
21
38.150300
0
LINE
8
CC
10
29.289800
20
38.150300
11
28.168500
21
38.894500
0
LINE
8
CC
10
28.168500
20
38.894500
11
27.084000
21
39.936700
0
LINE
8
CC
10
27.084000
20
39.936700
11
26.167400
21
41.204200
0
LINE
8
CC
10
26.167400
20
41.204200
11
25.504700
21
42.692600
0
LINE
8
CC
10
25.504700
20
42.692600
11
25.095600
21
44.402600
0
LINE
8
CC
10
25.095600
20
44.402600
11
24.940400
21
46.333300
0
LINE
8
CC
10
24.940400
20
46.333300
11
24.940400
21
50.972200
0
LINE
8
CC
10
24.940400
20
50.972200
11
27.356200
21
50.972200
0
LINE
8
CC
10
27.356200
20
50.972200
11
27.356200
21
46.333300
0
LINE
8
CC
10
27.356200
20
46.333300
11
27.724800
21
43.469600
0
LINE
8
CC
10
27.724800
20
43.469600
11
28.830700
21
41.275000
0
LINE
8
CC
10
28.830700
20
41.275000
11
30.157700
21
40.044300
0
LINE
8
CC
10
30.157700
20
40.044300
11
31.643300
21
39.528400
0
LINE
8
CC
10
31.643300
20
39.528400
11
31.643300
21
50.972200
0
LINE
8
CC
10
31.643300
20
50.972200
11
33.934400
21
50.972200
0
LINE
8
CC
10
33.934400
20
50.972200
11
33.934400
21
39.528400
0
LINE
8
CC
10
33.934400
20
39.528400
11
35.420300
21
40.044300
0
LINE
8
CC
10
35.420300
20
40.044300
11
36.747300
21
41.275000
0
LINE
8
CC
10
36.747300
20
41.275000
11
37.853000
21
43.469600
0
LINE
8
CC
10
37.853000
20
43.469600
11
38.221600
21
46.333300
0
LINE
8
CC
10
38.221600
20
46.333300
11
38.221600
21
50.972200
0
LINE
8
CC
10
38.221600
20
50.972200
11
40.637400
21
50.972200
0
LINE
8
CC
10
40.637400
20
50.972200
11
40.637400
21
46.333300
0
LINE
8
CC
10
40.637400
20
46.333300
11
40.482200
21
44.402600
0
LINE
8
CC
10
40.482200
20
44.402600
11
40.073300
21
42.692600
0
LINE
8
CC
10
40.073300
20
42.692600
11
39.410300
21
41.204200
0
LINE
8
CC
10
39.410300
20
41.204200
11
38.494000
21
39.936700
0
LINE
8
CC
10
38.494000
20
39.936700
11
37.409400
21
38.894500
0
LINE
8
CC
10
37.409400
20
38.894500
11
36.287800
21
38.150300
0
LINE
8
CC
10
36.287800
20
38.150300
11
35.129600
21
37.703800
0
LINE
8
CC
10
35.129600
20
37.703800
11
33.934400
21
37.554800
0
LINE
8
CC
10
33.934400
20
37.554800
11
33.934400
21
34.038900
0
LINE
8
CC
10
33.934400
20
34.038900
11
31.643300
21
34.038900
 0 
ENDSEC
 0 
EOF